{
    "asset" : {
        "generator" : "Khronos glTF Blender I/O v1.8.19",
        "version" : "2.0"
    },
    "scene" : 0,
    "scenes" : [
        {
            "name" : "Scene",
            "nodes" : [
                0,
                2
            ]
        }
    ],
    "nodes" : [
        {
            "mesh" : 0,
            "name" : "Text",
            "rotation" : [
                0.7071068286895752,
                0,
                0,
                0.7071068286895752
            ]
        },
        {
            "camera" : 0,
            "name" : "Camera_Orientation",
            "rotation" : [
                -0.7071067690849304,
                0,
                0,
                0.7071067690849304
            ]
        },
        {
            "children" : [
                1
            ],
            "name" : "Camera",
            "rotation" : [
                0.7071068286895752,
                0,
                0,
                0.7071067094802856
            ],
            "translation" : [
                0,
                0,
                7.210143089294434
            ]
        }
    ],
    "cameras" : [
        {
            "name" : "Camera",
            "perspective" : {
                "aspectRatio" : 1,
                "yfov" : 0.6911112070083618,
                "zfar" : 1000,
                "znear" : 0.10000000149011612
            },
            "type" : "perspective"
        }
    ],
    "animations" : [
        {
            "channels" : [
                {
                    "sampler" : 0,
                    "target" : {
                        "node" : 0,
                        "path" : "rotation"
                    }
                }
            ],
            "name" : "TextAction",
            "samplers" : [
                {
                    "input" : 4,
                    "interpolation" : "LINEAR",
                    "output" : 5
                }
            ]
        }
    ],
    "materials" : [
        {
            "doubleSided" : true,
            "name" : "Material.001",
            "pbrMetallicRoughness" : {
                "baseColorFactor" : [
                    0.8000000715255737,
                    0.002488459227606654,
                    0.012169762514531612,
                    1
                ],
                "metallicFactor" : 0,
                "roughnessFactor" : 0.5
            }
        }
    ],
    "meshes" : [
        {
            "name" : "Text",
            "primitives" : [
                {
                    "attributes" : {
                        "POSITION" : 0,
                        "NORMAL" : 1,
                        "TEXCOORD_0" : 2
                    },
                    "indices" : 3,
                    "material" : 0
                }
            ]
        }
    ],
    "accessors" : [
        {
            "bufferView" : 0,
            "componentType" : 5126,
            "count" : 5122,
            "max" : [
                1.5069999694824219,
                0.22999998927116394,
                1.3955469131469727
            ],
            "min" : [
                -1.5070000886917114,
                -0.22999998927116394,
                -1.3955469131469727
            ],
            "type" : "VEC3"
        },
        {
            "bufferView" : 1,
            "componentType" : 5126,
            "count" : 5122,
            "type" : "VEC3"
        },
        {
            "bufferView" : 2,
            "componentType" : 5126,
            "count" : 5122,
            "type" : "VEC2"
        },
        {
            "bufferView" : 3,
            "componentType" : 5123,
            "count" : 22104,
            "type" : "SCALAR"
        },
        {
            "bufferView" : 4,
            "componentType" : 5126,
            "count" : 120,
            "max" : [
                5
            ],
            "min" : [
                0.041666666666666664
            ],
            "type" : "SCALAR"
        },
        {
            "bufferView" : 5,
            "componentType" : 5126,
            "count" : 120,
            "type" : "VEC4"
        }
    ],
    "bufferViews" : [
        {
            "buffer" : 0,
            "byteLength" : 61464,
            "byteOffset" : 0
        },
        {
            "buffer" : 0,
            "byteLength" : 61464,
            "byteOffset" : 61464
        },
        {
            "buffer" : 0,
            "byteLength" : 40976,
            "byteOffset" : 122928
        },
        {
            "buffer" : 0,
            "byteLength" : 44208,
            "byteOffset" : 163904
        },
        {
            "buffer" : 0,
            "byteLength" : 480,
            "byteOffset" : 208112
        },
        {
            "buffer" : 0,
            "byteLength" : 1920,
            "byteOffset" : 208592
        }
    ],
    "buffers" : [
        {
            "byteLength" : 210512,
            "uri" : "data:application/octet-stream;base64,"
        }
    ]
}
